# xmcd CD database file
#
# Track frame offsets:
#	150
#	12402
#	28927
#	49655
#	66187
#	91060
#	112787
#	132450
#	152275
#	172545
#	196345
#	219865
#	242287
#
# Disc length: 3484 seconds
#
# Revision: 0
# Processed by: cddbd v1.5.1PL0 Copyright (c) Steve Scherf et al.
# Submitted via: CDex 1.51
#
DISCID=940d9a0d
DTITLE=Bobby Holland and the Breadline - Hittin' The Skids
DYEAR=2004
DGENRE=Blues
TTITLE0=Aw Shucks
TTITLE1=Breadlines' Here
TTITLE2=Baby What You Tryin' To Do
TTITLE3=Virginia Swing
TTITLE4=Whaddya Say
TTITLE5=My Hard Days Are Over
TTITLE6=Goin' To The Promised Land
TTITLE7=On The Breadline
TTITLE8=Stumblin' For The Door
TTITLE9=Wink And A Smile
TTITLE10=All Day Sucker
TTITLE11=Down In The Woods
TTITLE12=T For Texas
EXTD=YEAR: 2004
EXTT0=
EXTT1=
EXTT2=
EXTT3=
EXTT4=
EXTT5=
EXTT6=
EXTT7=
EXTT8=
EXTT9=
EXTT10=
EXTT11=
EXTT12=
PLAYORDER=
